{"glyphs":{":":{"x_min":0,"x_max":278,"ha":278,"o":"m 181 394 l 97 394 l 97 500 l 181 500 z m 181 0 l 97 0 l 97 106 l 181 106 z"},"$":{"x_min":0,"x_max":556,"ha":556,"o":"m 296 326 l 296 38 q 366 38 412 72 q 464 111 464 184 q 464 247 409 284 q 373 307 296 326 z m 257 397 l 257 676 q 192 676 154 641 q 110 602 110 527 q 110 465 155 434 q 184 415 257 397 z m 29 228 l 92 228 q 93 57 257 38 l 257 334 q 154 357 110 391 q 47 439 47 534 q 47 622 109 677 q 168 729 257 729 l 257 807 l 296 807 l 296 729 q 386 729 447 670 q 510 608 508 512 l 445 512 q 444 586 403 631 q 362 676 296 676 l 296 388 q 403 365 454 330 q 527 279 527 185 q 527 92 455 36 q 390 -16 296 -15 l 296 -100 l 257 -100 l 257 -14 q 141 -3 88 55 q 34 113 29 228 z"},"?":{"x_min":0,"x_max":537,"ha":537,"o":"m 117 494 l 54 494 q 55 602 114 666 q 174 729 281 729 q 367 729 424 680 q 484 628 484 544 q 484 459 397 374 q 327 306 319 291 q 306 266 304 179 l 241 179 q 239 264 266 312 q 285 345 356 412 q 421 473 421 541 q 421 600 380 638 q 338 676 278 676 q 199 676 157 626 q 115 575 117 494 z m 231 0 l 231 106 l 315 106 l 315 0 z"},"<":{"x_min":0,"x_max":600,"ha":600,"o":"m 554 47 l 554 -8 l 46 226 l 46 280 l 554 514 l 554 459 l 108 253 z"},"'":{"x_min":0,"x_max":278,"ha":278,"o":"m 108 471 l 108 714 l 171 714 l 171 471 z"},"=":{"x_min":0,"x_max":600,"ha":600,"o":"m 552 378 l 552 325 l 49 325 l 49 378 z m 552 181 l 552 128 l 49 128 l 49 181 z"},"a":{"x_min":0,"x_max":519,"ha":519,"o":"m 390 200 l 390 282 l 388 282 q 380 267 335 259 q 280 251 225 242 q 163 231 133 212 q 95 186 95 140 q 95 95 130 66 q 164 38 210 38 q 285 38 338 82 q 390 127 390 200 z m 117 358 l 54 358 q 58 445 117 490 q 170 531 263 531 q 453 531 453 365 l 453 91 q 453 53 490 53 q 500 53 510 57 l 510 4 q 491 0 469 0 q 424 0 408 25 q 395 45 395 90 l 393 90 q 357 35 320 12 q 275 -15 205 -15 q 129 -15 83 22 q 32 62 32 136 q 32 232 119 267 q 162 285 309 302 q 354 307 369 318 q 390 333 390 372 q 390 478 255 478 q 120 478 117 358 z"},"L":{"x_min":0,"x_max":537,"ha":537,"o":"m 72 0 l 72 714 l 140 714 l 140 58 l 540 58 l 540 0 z"},"3":{"x_min":0,"x_max":556,"ha":556,"o":"m 33 223 l 96 223 q 93 139 140 88 q 187 38 271 38 q 344 38 395 78 q 450 121 450 193 q 450 264 401 304 q 355 341 282 341 l 229 341 l 229 394 l 282 394 q 337 394 377 425 q 424 460 424 521 q 424 587 379 622 q 338 653 271 653 q 194 653 152 604 q 110 556 112 476 l 49 476 q 50 577 110 642 q 170 706 270 706 q 360 706 420 664 q 487 615 487 528 q 487 470 456 428 q 424 386 369 373 l 369 371 q 437 360 475 314 q 513 267 513 198 q 513 99 441 40 q 374 -15 272 -15 q 160 -15 93 49 q 26 113 33 223 z"},";":{"x_min":0,"x_max":278,"ha":278,"o":"m 97 106 l 181 106 l 181 -1 q 181 -48 160 -84 q 136 -125 93 -137 l 93 -94 q 116 -86 129 -55 q 141 -28 139 0 l 97 0 z m 181 394 l 97 394 l 97 500 l 181 500 z"},"J":{"x_min":0,"x_max":500,"ha":500,"o":"m 360 228 l 360 714 l 428 714 l 428 199 q 428 88 382 38 q 333 -15 220 -15 q 19 -15 21 229 l 89 229 q 92 146 105 113 q 135 43 226 43 q 303 43 333 86 q 360 127 360 228 z"},"V":{"x_min":0,"x_max":593,"ha":593,"o":"m 258 0 l -7 714 l 66 714 l 298 75 l 300 75 l 530 714 l 602 714 l 337 0 z"},"\"":{"x_min":0,"x_max":370,"ha":370,"o":"m 87 471 l 87 714 l 150 714 l 150 471 z m 220 471 l 220 714 l 283 714 l 283 471 z"},"7":{"x_min":0,"x_max":556,"ha":556,"o":"m 51 633 l 51 691 l 501 691 l 501 633 q 235 355 218 0 l 150 0 q 163 179 228 324 q 294 468 438 633 z"},"S":{"x_min":0,"x_max":630,"ha":630,"o":"m 36 235 l 104 235 q 100 43 337 43 q 405 43 460 77 q 526 117 526 188 q 526 281 379 317 l 220 356 q 59 395 59 528 q 59 600 107 655 q 172 729 305 729 q 417 729 490 673 q 570 612 569 507 l 501 507 q 498 585 440 630 q 386 671 306 671 q 228 671 182 640 q 127 603 127 529 q 127 447 235 420 l 409 377 q 594 331 594 189 q 594 120 552 69 q 484 -15 321 -15 q 187 -15 112 45 q 30 110 36 235 z"},"}":{"x_min":0,"x_max":333,"ha":333,"o":"m 40 729 l 90 729 q 132 729 155 696 q 178 662 178 604 l 178 456 q 178 296 250 296 l 250 243 q 178 243 178 83 l 178 -66 q 178 -124 155 -158 q 132 -191 90 -191 l 40 -191 l 40 -138 l 60 -138 q 115 -138 115 -35 l 115 106 q 115 176 145 225 q 164 257 185 268 l 185 270 q 164 281 145 313 q 115 362 115 432 l 115 573 q 115 676 60 676 l 40 676 z"},"Z":{"x_min":0,"x_max":574,"ha":574,"o":"m 37 656 l 37 714 l 551 714 l 551 654 l 81 58 l 561 58 l 561 0 l 5 0 l 5 60 l 475 656 z"},"x":{"x_min":0,"x_max":481,"ha":481,"o":"m 1 0 l 201 268 l 16 516 l 95 516 l 242 320 l 386 516 l 465 516 l 279 269 l 480 0 l 400 0 l 238 217 l 79 0 z"},")":{"x_min":0,"x_max":241,"ha":241,"o":"m -1 729 l 49 729 q 190 496 190 272 q 190 28 49 -191 l -1 -191 q 127 13 127 295 q 127 402 92 520 q 57 634 -1 729 z"},"&":{"x_min":0,"x_max":611,"ha":611,"o":"m 426 140 l 248 356 q 102 277 102 179 q 102 118 148 78 q 194 38 257 38 q 354 38 426 140 z m 541 0 l 465 93 q 379 -15 255 -15 q 160 -15 101 37 q 39 91 39 185 q 39 303 214 397 q 163 463 155 476 q 126 524 126 569 q 126 633 172 674 q 217 714 284 714 q 351 714 396 674 q 442 633 442 569 q 442 509 399 460 q 369 426 302 384 l 458 196 q 479 239 479 316 l 542 316 q 542 223 500 145 l 620 0 z m 284 661 q 243 661 216 636 q 189 612 189 569 q 189 523 269 425 q 379 493 379 569 q 379 612 352 636 q 325 661 284 661 z"},"_":{"x_min":0,"x_max":500,"ha":500,"o":"m 500 -125 l 0 -125 l 0 -75 l 500 -75 z"},"v":{"x_min":0,"x_max":463,"ha":463,"o":"m 201 0 l 2 516 l 72 516 l 234 63 l 236 63 l 396 516 l 461 516 l 268 0 z"},"O":{"x_min":0,"x_max":741,"ha":741,"o":"m 34 357 q 34 513 118 616 q 210 729 371 729 q 531 729 623 616 q 707 513 707 357 q 707 201 623 98 q 531 -15 371 -15 q 210 -15 118 98 q 34 201 34 357 z m 102 357 q 102 228 166 142 q 238 43 371 43 q 503 43 576 142 q 639 228 639 357 q 639 486 576 573 q 503 671 371 671 q 238 671 166 573 q 102 486 102 357 z"},"(":{"x_min":0,"x_max":241,"ha":241,"o":"m 242 -191 l 192 -191 q 51 42 51 266 q 51 510 192 729 l 242 729 q 114 525 114 243 q 114 136 150 18 q 184 -96 242 -191 z"},"C":{"x_min":0,"x_max":704,"ha":704,"o":"m 662 498 l 594 498 q 576 579 516 625 q 455 671 375 671 q 242 671 170 573 q 106 486 106 357 q 106 228 170 142 q 242 43 375 43 q 471 43 534 110 q 594 173 604 272 l 672 272 q 658 140 578 62 q 499 -15 375 -15 q 214 -15 122 98 q 38 201 38 357 q 38 513 122 616 q 214 729 375 729 q 482 729 562 670 q 649 605 662 498 z"},"W":{"x_min":0,"x_max":907,"ha":907,"o":"m 198 0 l 0 714 l 73 714 l 235 89 l 237 89 l 411 714 l 496 714 l 671 89 l 673 89 l 836 714 l 904 714 l 707 0 l 635 0 l 454 639 l 452 639 l 272 0 z"},"A":{"x_min":0,"x_max":630,"ha":630,"o":"m -7 0 l 281 714 l 357 714 l 637 0 l 564 0 l 477 222 l 152 222 l 66 0 z m 316 646 l 173 280 l 454 280 z"},"f":{"x_min":0,"x_max":259,"ha":259,"o":"m 259 516 l 259 463 l 157 463 l 157 0 l 94 0 l 94 463 l 6 463 l 6 516 l 94 516 l 94 563 q 94 637 119 672 q 148 714 219 714 q 245 714 272 710 l 272 656 q 244 661 226 661 q 179 661 165 632 q 157 615 157 561 l 157 516 z"},"Q":{"x_min":0,"x_max":741,"ha":741,"o":"m 444 192 l 548 113 q 639 200 639 357 q 639 486 576 573 q 503 671 371 671 q 238 671 166 573 q 102 486 102 357 q 102 228 166 142 q 238 43 371 43 q 448 43 503 78 l 409 149 z m 701 -4 l 667 -46 l 556 38 q 480 -15 371 -15 q 210 -15 118 98 q 34 201 34 357 q 34 513 118 616 q 210 729 371 729 q 531 729 623 616 q 707 513 707 357 q 707 178 599 74 z"},"w":{"x_min":0,"x_max":741,"ha":741,"o":"m 174 0 l 8 516 l 75 516 l 207 74 l 209 74 l 335 516 l 406 516 l 532 74 l 534 74 l 666 516 l 733 516 l 567 0 l 498 0 l 371 434 l 369 434 l 243 0 z"},"-":{"x_min":0,"x_max":370,"ha":370,"o":"m 310 246 l 60 246 l 60 304 l 310 304 z"},"E":{"x_min":0,"x_max":593,"ha":593,"o":"m 72 0 l 72 714 l 565 714 l 565 656 l 140 656 l 140 398 l 538 398 l 538 340 l 140 340 l 140 58 l 570 58 l 570 0 z"},"s":{"x_min":0,"x_max":481,"ha":481,"o":"m 432 365 l 369 365 q 367 421 327 451 q 291 478 234 478 q 185 478 152 459 q 112 435 112 389 q 112 326 219 302 l 303 283 q 450 250 450 140 q 450 63 383 21 q 325 -15 243 -15 q 45 -15 31 167 l 94 167 q 98 105 140 72 q 181 38 246 38 q 299 38 339 60 q 387 87 387 136 q 387 205 274 230 l 193 248 q 123 264 90 291 q 49 325 49 386 q 49 459 112 498 q 165 531 243 531 q 324 531 375 490 q 429 446 432 365 z"},">":{"x_min":0,"x_max":600,"ha":600,"o":"m 46 47 l 492 253 l 46 459 l 46 514 l 554 280 l 554 226 l 46 -8 z"},"l":{"x_min":0,"x_max":185,"ha":185,"o":"m 61 0 l 61 714 l 124 714 l 124 0 z"},"8":{"x_min":0,"x_max":556,"ha":556,"o":"m 278 38 q 356 38 404 77 q 456 119 456 196 q 456 268 402 310 q 353 348 278 348 q 201 348 153 311 q 100 270 100 196 q 100 120 152 78 q 201 38 278 38 z m 490 531 q 490 474 460 434 q 430 393 376 376 l 376 375 q 443 362 481 314 q 519 267 519 196 q 519 95 448 38 q 382 -15 278 -15 q 174 -15 108 38 q 36 95 37 196 q 38 265 76 314 q 115 363 179 375 l 179 377 q 65 411 65 531 q 65 615 132 664 q 192 706 277 706 q 363 706 423 664 q 490 615 490 531 z m 278 401 q 341 401 381 432 q 427 467 427 531 q 427 589 386 621 q 344 653 278 653 q 216 653 174 622 q 128 588 128 531 q 128 465 175 431 q 216 401 278 401 z"},"\\":{"x_min":0,"x_max":333,"ha":333,"o":"m 346 -15 l 292 -15 l -13 729 l 38 729 z"},"e":{"x_min":0,"x_max":519,"ha":519,"o":"m 494 241 l 97 241 q 98 161 137 105 q 184 38 267 38 q 395 38 429 170 l 492 170 q 449 -15 267 -15 q 151 -15 89 66 q 34 139 34 258 q 34 371 89 446 q 152 531 267 531 q 384 531 445 440 q 498 361 494 241 z m 97 294 l 431 294 q 429 370 386 422 q 340 478 267 478 q 194 478 147 421 q 105 371 97 294 z"},"b":{"x_min":0,"x_max":574,"ha":574,"o":"m 473 258 q 473 348 434 408 q 388 478 304 478 q 211 478 163 408 q 123 349 123 258 q 123 167 163 108 q 211 38 304 38 q 388 38 434 108 q 473 168 473 258 z m 60 0 l 60 714 l 123 714 l 123 418 l 125 418 q 145 472 196 502 q 244 531 304 531 q 416 531 479 449 q 536 375 536 258 q 536 141 479 67 q 416 -15 304 -15 q 241 -15 192 16 q 142 46 120 98 l 118 98 l 118 0 z"},"%":{"x_min":0,"x_max":889,"ha":889,"o":"m 228 661 q 171 661 144 613 q 122 575 122 516 q 122 458 144 421 q 171 373 228 373 q 285 373 313 421 q 334 458 334 516 q 334 575 313 613 q 285 661 228 661 z m 190 -34 l 643 725 l 690 725 l 238 -34 z m 667 363 q 748 363 789 309 q 826 260 826 174 q 826 88 789 39 q 748 -15 667 -15 q 586 -15 545 39 q 508 88 508 174 q 508 260 545 309 q 586 363 667 363 z m 667 318 q 610 318 583 270 q 561 232 561 173 q 561 115 583 78 q 610 30 667 30 q 724 30 752 78 q 773 115 773 173 q 773 232 752 270 q 724 318 667 318 z m 228 706 q 309 706 350 652 q 387 603 387 517 q 387 431 350 382 q 309 328 228 328 q 147 328 106 382 q 69 431 69 517 q 69 603 106 652 q 147 706 228 706 z"},"m":{"x_min":0,"x_max":833,"ha":833,"o":"m 60 0 l 60 516 l 118 516 l 118 429 l 121 429 q 175 531 290 531 q 343 531 384 505 q 424 479 438 430 q 484 531 602 531 q 773 531 773 350 l 773 0 l 710 0 l 710 347 q 710 478 588 478 q 448 478 448 292 l 448 0 l 385 0 l 385 350 q 385 478 277 478 q 199 478 159 424 q 123 374 123 288 l 123 0 z"},"#":{"x_min":0,"x_max":556,"ha":556,"o":"m 497 268 l 497 223 l 386 223 l 355 0 l 305 0 l 336 223 l 195 223 l 164 0 l 114 0 l 145 223 l 35 223 l 35 268 l 151 268 l 173 424 l 63 424 l 63 469 l 179 469 l 210 691 l 260 691 l 229 469 l 370 469 l 401 691 l 451 691 l 420 469 l 525 469 l 525 424 l 414 424 l 392 268 z m 364 424 l 223 424 l 201 268 l 342 268 z"},",":{"x_min":0,"x_max":278,"ha":278,"o":"m 97 106 l 181 106 l 181 -1 q 181 -48 160 -84 q 136 -125 93 -137 l 93 -94 q 116 -86 129 -55 q 141 -28 139 0 l 97 0 z"},"n":{"x_min":0,"x_max":537,"ha":537,"o":"m 59 0 l 59 516 l 122 516 l 122 427 l 124 427 q 141 473 188 502 q 234 531 289 531 q 393 531 438 478 q 478 430 478 332 l 478 0 l 415 0 l 415 322 q 415 478 284 478 q 210 478 166 428 q 122 378 122 301 l 122 0 z"},"h":{"x_min":0,"x_max":537,"ha":537,"o":"m 59 0 l 59 714 l 122 714 l 122 427 l 124 427 q 141 473 188 502 q 234 531 289 531 q 393 531 438 478 q 478 430 478 332 l 478 0 l 415 0 l 415 322 q 415 478 284 478 q 210 478 166 428 q 122 378 122 301 l 122 0 z"},"z":{"x_min":0,"x_max":463,"ha":463,"o":"m 432 471 l 91 53 l 446 53 l 446 0 l 15 0 l 15 51 l 352 463 l 38 463 l 38 516 l 432 516 z"},"B":{"x_min":0,"x_max":667,"ha":667,"o":"m 140 343 l 140 58 l 374 58 q 562 58 562 205 q 562 343 374 343 z m 72 0 l 72 714 l 374 714 q 475 714 534 676 q 603 632 603 539 q 603 482 568 436 q 534 391 479 379 l 479 377 q 548 368 589 320 q 630 273 630 203 q 630 0 374 0 z m 140 656 l 140 401 l 374 401 q 452 401 495 436 q 535 469 535 522 q 535 656 374 656 z"},"K":{"x_min":0,"x_max":648,"ha":648,"o":"m 72 0 l 72 714 l 140 714 l 140 330 l 555 714 l 647 714 l 328 419 l 662 0 l 574 0 l 277 372 l 140 245 l 140 0 z"},"R":{"x_min":0,"x_max":667,"ha":667,"o":"m 72 0 l 72 714 l 399 714 q 494 714 552 669 q 616 620 616 528 q 616 458 581 410 q 544 359 477 346 l 477 344 q 593 329 602 183 q 607 97 608 87 q 616 23 635 0 l 560 0 q 546 22 541 111 q 535 212 516 251 q 484 317 398 317 l 140 317 l 140 0 z m 140 656 l 140 375 l 394 375 q 459 375 504 413 q 548 451 548 514 q 548 581 508 618 q 469 656 394 656 z"},"T":{"x_min":0,"x_max":556,"ha":556,"o":"m -5 656 l -5 714 l 561 714 l 561 656 l 312 656 l 312 0 l 244 0 l 244 656 z"},"P":{"x_min":0,"x_max":630,"ha":630,"o":"m 72 0 l 72 714 l 389 714 q 486 714 544 660 q 601 606 601 510 q 601 414 544 360 q 486 306 389 306 l 140 306 l 140 0 z m 140 656 l 140 364 l 374 364 q 447 364 490 402 q 533 439 533 510 q 533 581 489 620 q 447 656 374 656 z"},"|":{"x_min":0,"x_max":222,"ha":222,"o":"m 85 -15 l 85 729 l 138 729 l 138 -15 z"},"t":{"x_min":0,"x_max":296,"ha":296,"o":"m 160 671 l 160 516 l 265 516 l 265 463 l 160 463 l 160 115 q 160 81 168 68 q 179 49 211 47 q 230 46 265 50 l 265 -4 q 256 -4 238 -5 q 219 -6 209 -6 q 146 -6 122 19 q 97 44 97 110 l 97 463 l 7 463 l 7 516 l 97 516 l 97 671 z"},"M":{"x_min":0,"x_max":833,"ha":833,"o":"m 70 0 l 70 714 l 170 714 l 417 88 l 663 714 l 763 714 l 763 0 l 695 0 l 695 617 l 693 617 l 449 0 l 385 0 l 140 617 l 138 617 l 138 0 z"},"g":{"x_min":0,"x_max":556,"ha":556,"o":"m 267 59 q 345 59 391 122 q 433 180 433 264 q 433 350 395 409 q 350 478 267 478 q 183 478 137 411 q 97 353 97 264 q 97 179 139 123 q 185 59 267 59 z m 496 516 l 496 42 q 496 -206 267 -206 q 182 -206 125 -169 q 59 -127 53 -50 l 116 -50 q 135 -153 267 -153 q 433 -153 433 42 l 433 112 l 431 112 q 409 64 366 35 q 322 6 267 6 q 149 6 89 83 q 34 153 34 271 q 34 382 95 454 q 159 531 267 531 q 322 531 367 501 q 412 471 431 427 l 433 427 l 433 516 z"},"j":{"x_min":0,"x_max":185,"ha":185,"o":"m 61 -63 l 61 516 l 124 516 l 124 -48 q 124 -191 14 -191 q 7 -191 -8 -190 q -23 -189 -30 -189 l -30 -137 q -8 -139 4 -138 q 61 -138 61 -63 z m 61 613 l 61 714 l 124 714 l 124 613 z"},"i":{"x_min":0,"x_max":185,"ha":185,"o":"m 61 0 l 61 516 l 124 516 l 124 0 z m 61 613 l 61 714 l 124 714 l 124 613 z"},"y":{"x_min":0,"x_max":463,"ha":463,"o":"m 208 2 l 2 516 l 69 516 l 239 76 l 398 516 l 461 516 l 237 -79 q 212 -147 186 -168 q 159 -192 101 -191 q 65 -191 53 -186 l 53 -133 q 78 -138 96 -138 q 134 -138 155 -116 q 170 -100 186 -57 z"},"@":{"x_min":0,"x_max":800,"ha":800,"o":"m 426 510 q 355 510 303 430 q 256 357 256 279 q 256 235 279 208 q 302 182 339 182 q 404 182 457 267 q 505 343 505 417 q 505 452 480 481 q 455 510 426 510 z m 614 544 l 518 256 q 507 222 507 202 q 507 173 531 173 q 596 173 649 255 q 700 334 700 421 q 700 541 616 614 q 536 684 416 684 q 278 684 189 588 q 100 493 100 353 q 100 216 191 123 q 282 30 418 30 q 492 30 562 66 q 633 101 676 163 l 727 163 q 682 81 598 33 q 513 -15 418 -15 q 258 -15 152 93 q 47 201 47 360 q 47 516 154 622 q 261 729 414 729 q 560 729 656 642 q 753 555 753 418 q 753 301 680 214 q 608 128 521 128 q 460 128 454 195 l 452 195 q 390 129 325 129 q 265 129 229 171 q 193 213 193 274 q 193 384 258 470 q 328 563 430 563 q 505 563 536 479 l 561 544 z"},".":{"x_min":0,"x_max":278,"ha":278,"o":"m 181 0 l 97 0 l 97 106 l 181 106 z"},"p":{"x_min":0,"x_max":574,"ha":574,"o":"m 473 258 q 473 348 434 408 q 388 478 304 478 q 123 478 123 258 q 123 167 163 108 q 211 38 304 38 q 388 38 434 108 q 473 168 473 258 z m 60 -191 l 60 516 l 118 516 l 118 418 l 120 418 q 142 470 192 500 q 241 531 304 531 q 416 531 479 449 q 536 375 536 258 q 536 141 479 67 q 416 -15 304 -15 q 244 -15 196 14 q 145 44 125 98 l 123 98 l 123 -191 z"},"X":{"x_min":0,"x_max":574,"ha":574,"o":"m 245 368 l 3 714 l 83 714 l 285 415 l 494 714 l 570 714 l 326 366 l 584 0 l 502 0 l 285 315 l 65 0 l -12 0 z"},"*":{"x_min":0,"x_max":352,"ha":352,"o":"m 142 556 l 27 595 l 41 632 l 156 591 l 156 714 l 195 714 l 195 591 l 310 632 l 325 595 l 207 556 l 279 458 l 247 435 l 174 535 l 101 435 l 69 458 z"},"Y":{"x_min":0,"x_max":611,"ha":611,"o":"m 271 0 l 271 294 l -10 714 l 71 714 l 306 352 l 540 714 l 621 714 l 339 294 l 339 0 z"},"c":{"x_min":0,"x_max":519,"ha":519,"o":"m 487 354 l 424 354 q 397 478 278 478 q 192 478 142 409 q 97 347 97 258 q 97 169 142 107 q 192 38 278 38 q 337 38 380 80 q 422 121 428 185 l 491 185 q 478 92 421 38 q 364 -15 278 -15 q 164 -15 97 66 q 34 142 34 258 q 34 374 97 450 q 164 531 278 531 q 363 531 419 487 q 477 440 487 354 z"},"!":{"x_min":0,"x_max":241,"ha":241,"o":"m 102 178 l 87 501 l 87 714 l 155 714 l 155 501 l 140 178 z m 163 0 l 79 0 l 79 106 l 163 106 z"},"/":{"x_min":0,"x_max":333,"ha":333,"o":"m 41 -15 l -13 -15 l 295 729 l 346 729 z"},"[":{"x_min":0,"x_max":241,"ha":241,"o":"m 237 -191 l 76 -191 l 76 729 l 237 729 l 237 676 l 139 676 l 139 -138 l 237 -138 z"},"6":{"x_min":0,"x_max":556,"ha":556,"o":"m 290 403 q 210 403 163 350 q 116 298 116 218 q 116 139 158 91 q 204 38 291 38 q 364 38 413 92 q 459 143 459 218 q 459 297 415 349 q 368 403 290 403 z m 505 523 l 442 523 q 434 582 395 618 q 356 653 296 653 q 187 653 138 544 q 103 465 103 340 l 105 340 q 130 392 181 424 q 232 456 291 456 q 395 456 458 391 q 522 326 522 222 q 522 120 455 52 q 388 -15 285 -15 q 156 -15 98 70 q 40 155 40 357 q 40 474 79 563 q 142 706 290 706 q 483 706 505 523 z"},"r":{"x_min":0,"x_max":315,"ha":315,"o":"m 60 0 l 60 516 l 118 516 l 118 395 l 120 395 q 144 458 195 492 q 246 526 315 523 l 315 460 q 231 464 177 410 q 123 357 123 275 l 123 0 z"},"2":{"x_min":0,"x_max":556,"ha":556,"o":"m 497 58 l 497 0 l 36 0 q 38 93 99 164 q 138 209 234 273 q 337 342 373 378 q 431 436 431 510 q 431 576 384 616 q 340 653 274 653 q 193 653 151 594 q 114 542 116 458 l 53 458 q 51 570 107 636 q 166 706 277 706 q 372 706 431 656 q 494 603 494 509 q 494 429 440 363 q 400 314 318 260 q 198 181 194 177 q 119 118 108 58 z"},"{":{"x_min":0,"x_max":333,"ha":333,"o":"m 293 -191 l 243 -191 q 201 -191 178 -158 q 155 -124 155 -66 l 155 82 q 155 242 83 242 l 83 295 q 155 295 155 455 l 155 604 q 155 662 178 696 q 201 729 243 729 l 293 729 l 293 676 l 273 676 q 218 676 218 573 l 218 432 q 218 362 188 313 q 169 281 148 270 l 148 268 q 169 257 188 225 q 218 176 218 106 l 218 -35 q 218 -138 273 -138 l 293 -138 z"},"9":{"x_min":0,"x_max":556,"ha":556,"o":"m 266 288 q 346 288 394 342 q 440 393 440 473 q 440 552 398 600 q 352 653 265 653 q 192 653 144 600 q 97 548 97 473 q 97 394 142 341 q 188 288 266 288 z m 51 168 l 114 168 q 122 109 161 74 q 200 38 260 38 q 369 38 418 147 q 453 226 453 351 l 451 351 q 426 299 375 267 q 324 235 265 235 q 161 235 98 300 q 34 365 34 469 q 34 571 101 638 q 168 706 271 706 q 400 706 458 621 q 516 536 516 334 q 516 217 477 128 q 414 -15 266 -15 q 74 -15 51 168 z"}," ":{"x_min":0,"x_max":278,"ha":278,"o":""},"I":{"x_min":0,"x_max":222,"ha":222,"o":"m 77 0 l 77 714 l 145 714 l 145 0 z"},"H":{"x_min":0,"x_max":704,"ha":704,"o":"m 72 0 l 72 714 l 140 714 l 140 404 l 564 404 l 564 714 l 632 714 l 632 0 l 564 0 l 564 346 l 140 346 l 140 0 z"},"4":{"x_min":0,"x_max":556,"ha":556,"o":"m 30 174 l 30 235 l 354 700 l 411 700 l 411 227 l 516 227 l 516 174 l 411 174 l 411 0 l 353 0 l 353 174 z m 87 227 l 353 227 l 353 608 l 351 608 z"},"~":{"x_min":0,"x_max":600,"ha":600,"o":"m 495 315 l 495 315 l 531 279 q 501 237 481 220 q 447 193 406 193 q 366 193 297 226 q 228 258 189 258 q 137 258 105 189 l 69 225 q 114 311 194 311 q 236 311 309 278 q 382 246 407 246 q 450 246 495 315 z"},"D":{"x_min":0,"x_max":685,"ha":685,"o":"m 140 656 l 140 58 l 285 58 q 440 58 510 128 q 579 198 579 357 q 579 516 510 586 q 440 656 285 656 z m 72 0 l 72 714 l 319 714 q 480 714 564 624 q 647 533 647 357 q 647 181 564 90 q 480 0 319 0 z"},"^":{"x_min":0,"x_max":600,"ha":600,"o":"m 102 238 l 44 238 l 274 691 l 326 691 l 556 238 l 499 238 l 299 628 z"},"0":{"x_min":0,"x_max":556,"ha":556,"o":"m 278 653 q 97 653 97 346 q 97 38 278 38 q 459 38 459 346 q 459 653 278 653 z m 278 706 q 522 706 522 346 q 522 -15 278 -15 q 34 -15 34 345 q 34 706 278 706 z"},"F":{"x_min":0,"x_max":537,"ha":537,"o":"m 72 0 l 72 714 l 525 714 l 525 656 l 140 656 l 140 398 l 482 398 l 482 340 l 140 340 l 140 0 z"},"`":{"x_min":0,"x_max":185,"ha":185,"o":"m 101 588 l -31 729 l 47 729 l 152 588 z"},"k":{"x_min":0,"x_max":500,"ha":500,"o":"m 60 0 l 60 714 l 123 714 l 123 266 l 409 516 l 493 516 l 273 325 l 508 0 l 429 0 l 225 281 l 123 196 l 123 0 z"},"u":{"x_min":0,"x_max":537,"ha":537,"o":"m 478 516 l 478 0 l 420 0 l 420 93 l 418 93 q 394 42 346 14 q 298 -15 240 -15 q 59 -15 59 181 l 59 516 l 122 516 l 122 180 q 122 38 260 38 q 336 38 378 102 q 415 159 415 245 l 415 516 z"},"]":{"x_min":0,"x_max":241,"ha":241,"o":"m 4 729 l 165 729 l 165 -191 l 4 -191 l 4 -138 l 102 -138 l 102 676 l 4 676 z"},"U":{"x_min":0,"x_max":685,"ha":685,"o":"m 65 257 l 65 714 l 133 714 l 133 272 q 133 43 342 43 q 552 43 552 272 l 552 714 l 620 714 l 620 257 q 620 137 556 66 q 483 -15 342 -15 q 202 -15 129 66 q 65 138 65 257 z"},"o":{"x_min":0,"x_max":556,"ha":556,"o":"m 278 531 q 392 531 459 450 q 522 374 522 258 q 522 142 459 66 q 392 -15 278 -15 q 164 -15 97 66 q 34 142 34 258 q 34 374 97 450 q 164 531 278 531 z m 278 478 q 192 478 142 409 q 97 347 97 258 q 97 169 142 107 q 192 38 278 38 q 364 38 414 107 q 459 169 459 258 q 459 347 414 409 q 364 478 278 478 z"},"N":{"x_min":0,"x_max":704,"ha":704,"o":"m 71 0 l 71 714 l 147 714 l 563 110 l 565 110 l 565 714 l 633 714 l 633 0 l 557 0 l 141 604 l 139 604 l 139 0 z"},"+":{"x_min":0,"x_max":600,"ha":600,"o":"m 274 278 l 274 503 l 327 503 l 327 278 l 552 278 l 552 225 l 327 225 l 327 0 l 274 0 l 274 225 l 49 225 l 49 278 z"},"G":{"x_min":0,"x_max":741,"ha":741,"o":"m 682 363 l 682 0 l 633 0 l 624 130 l 622 130 q 554 -15 375 -15 q 214 -15 122 98 q 38 201 38 357 q 38 513 122 616 q 214 729 375 729 q 491 729 571 669 q 654 606 673 492 l 605 492 q 598 560 538 612 q 471 671 375 671 q 242 671 170 573 q 106 486 106 357 q 106 228 170 142 q 242 43 375 43 q 491 43 559 117 q 624 189 622 305 l 379 305 l 379 363 z"},"q":{"x_min":0,"x_max":574,"ha":574,"o":"m 101 258 q 101 168 141 108 q 186 38 270 38 q 363 38 411 108 q 451 167 451 258 q 451 349 411 408 q 363 478 270 478 q 186 478 141 408 q 101 348 101 258 z m 514 516 l 514 -191 l 451 -191 l 451 98 l 449 98 q 429 44 380 14 q 330 -15 270 -15 q 158 -15 95 67 q 38 141 38 258 q 38 375 95 449 q 158 531 270 531 q 328 531 381 499 q 434 467 454 418 l 456 418 l 456 516 z"},"d":{"x_min":0,"x_max":574,"ha":574,"o":"m 101 258 q 101 168 141 108 q 186 38 270 38 q 363 38 411 108 q 451 167 451 258 q 451 349 411 408 q 363 478 270 478 q 186 478 141 408 q 101 348 101 258 z m 514 714 l 514 0 l 456 0 l 456 98 l 454 98 q 434 49 381 17 q 328 -15 270 -15 q 158 -15 95 67 q 38 141 38 258 q 38 375 95 449 q 158 531 270 531 q 330 531 380 502 q 429 472 449 418 l 451 418 l 451 714 z"},"1":{"x_min":0,"x_max":556,"ha":556,"o":"m 97 520 l 97 565 q 197 569 230 586 q 281 612 294 700 l 345 700 l 345 0 l 282 0 l 282 520 z"},"5":{"x_min":0,"x_max":556,"ha":556,"o":"m 36 200 l 99 200 q 101 128 150 83 q 198 38 271 38 q 350 38 398 94 q 446 150 446 229 q 446 307 396 359 q 345 411 267 411 q 164 411 111 328 l 57 328 l 125 691 l 475 691 l 475 633 l 169 633 l 124 401 l 126 399 q 181 464 274 464 q 381 464 445 396 q 509 329 509 222 q 509 120 438 52 q 368 -15 266 -15 q 167 -15 102 44 q 38 102 36 200 z"}}}
